<svg width="64" height="64" viewBox="0 0 64 64" fill="none" xmlns="http://www.w3.org/2000/svg">
<g clip-path="url(#clip0_2_6)">
<path d="M31.9999 0C24.4014 0.000323058 17.051 2.77276 11.2639 7.82125C5.47674 12.8697 1.63048 19.8648 0.413311 27.5549C-0.803858 35.2449 0.687499 43.1281 4.62053 49.7939C8.55357 56.4598 14.6716 61.4732 21.88 63.9372C23.48 64.2243 24.08 63.2401 24.08 62.3787C24.08 61.5996 24.04 59.0158 24.04 56.268C16 57.7854 13.92 54.2586 13.28 52.413C12.5698 50.6181 11.4441 49.0275 10 47.7786C8.88002 47.1634 7.28004 45.646 9.95999 45.6051C10.9833 45.7189 11.9648 46.084 12.8212 46.6694C13.6777 47.2548 14.3839 48.0432 14.88 48.9679C15.3176 49.774 15.9062 50.4837 16.6118 51.0562C17.3174 51.6288 18.1263 52.0529 18.9921 52.3043C19.8578 52.5558 20.7635 52.6296 21.6571 52.5216C22.5508 52.4135 23.4149 52.1257 24.1999 51.6747C24.3384 50.0067 25.0634 48.4472 26.2399 47.2866C19.12 46.4663 11.68 43.6364 11.68 31.087C11.635 27.8262 12.8086 24.6713 14.96 22.2694C13.9817 19.4354 14.0962 16.3253 15.28 13.575C15.28 13.575 17.9599 12.7137 24.0799 16.9379C29.316 15.4614 34.8437 15.4614 40.0798 16.9379C46.1997 12.6727 48.8797 13.575 48.8797 13.575C50.0637 16.3253 50.1782 19.4355 49.1997 22.2694C51.3576 24.6672 52.5322 27.8248 52.4797 31.087C52.4797 43.6774 44.9997 46.4663 37.8798 47.2866C38.6435 48.0802 39.2317 49.033 39.6044 50.0803C39.9771 51.1276 40.1256 52.2449 40.0398 53.3563C40.0398 57.7446 39.9998 61.2715 39.9998 62.3789C39.9998 63.2402 40.5998 64.2654 42.1998 63.9373C49.3954 61.4532 55.4959 56.428 59.4122 49.7588C63.3285 43.0896 64.8057 35.2104 63.5801 27.5278C62.3544 19.8452 58.5058 12.8592 52.7212 7.81686C46.9366 2.77452 39.5925 0.00405165 31.9999 0Z" fill="black"/>
</g>
<defs>
<clipPath id="clip0_2_6">
<rect width="64" height="64" fill="white"/>
</clipPath>
</defs>
</svg>
