<svg width="64" height="64" viewBox="0 0 64 64" fill="none" xmlns="http://www.w3.org/2000/svg">
<g clip-path="url(#clip0_2_4)">
<path d="M32 0C23.5131 0 15.3737 3.37142 9.37258 9.37258C3.37142 15.3737 0 23.5131 0 32C0 40.4869 3.37142 48.6263 9.37258 54.6274C15.3737 60.6286 23.5131 64 32 64C40.4869 64 48.6263 60.6286 54.6274 54.6274C60.6286 48.6263 64 40.4869 64 32C64 23.5131 60.6286 15.3737 54.6274 9.37258C48.6263 3.37142 40.4869 0 32 0ZM13.8784 19.7317L50.4517 19.7415C50.6137 19.7409 50.7743 19.7722 50.9242 19.8338C51.0741 19.8954 51.2104 19.9859 51.3252 20.1003C51.44 20.2146 51.5311 20.3505 51.5932 20.5002C51.6554 20.6498 51.6874 20.8103 51.6874 20.9723V43.0769C51.6874 43.239 51.6554 43.3994 51.5932 43.5491C51.5311 43.6987 51.44 43.8346 51.3252 43.949C51.2104 44.0633 51.0741 44.1539 50.9242 44.2154C50.7743 44.277 50.6137 44.3083 50.4517 44.3077H13.6049C13.2785 44.3077 12.9655 44.178 12.7346 43.9472C12.5038 43.7164 12.3742 43.4033 12.3742 43.0769V21.6738V21.5335V20.9625C12.3742 20.636 12.5038 20.323 12.7346 20.0922C12.9655 19.8614 13.2785 19.7317 13.6049 19.7317H13.8068H13.8784ZM20.5 24L32.0492 32L42 24H20.5ZM16 25V40.5H47.0868V25L32.8123 36.6646C32.595 36.8363 32.3262 36.9297 32.0492 36.9297C31.7723 36.9297 31.5034 36.8363 31.2862 36.6646L16 25Z" fill="black"/>
</g>
<defs>
<clipPath id="clip0_2_4">
<rect width="64" height="64" fill="white"/>
</clipPath>
</defs>
</svg>
